<svg width="623" height="404" viewBox="0 0 623 404" fill="none" xmlns="http://www.w3.org/2000/svg">
<rect x="38.3889" y="10" width="534" height="315" rx="15" transform="rotate(7 38.3889 10)" fill="#FFDA62"/>
<rect x="44" y="89" width="534" height="315" rx="15" fill="#FAB8C5"/>
<path d="M463.121 148.623C489.35 167.77 493.529 148.676 492.34 136.736C494.503 143.326 501.365 156.385 511.509 155.905C521.212 155.445 521.601 142.934 520.491 135.924C521.354 139.809 525.081 146.748 534.774 149.446C545.29 152.374 545.359 133.259 544.078 123.336C550.03 129.288 563.579 139.548 570.156 132.971C576.733 126.394 574.604 115.918 572.718 111.502C574.819 113.602 580.979 117.106 588.812 114.315C598.603 110.826 592.577 36.4988 583.407 45.6687C576.071 53.0046 576.048 62.1307 576.954 65.7767C572.738 59.6638 562.662 49.0821 556.085 55.6592C549.508 62.2363 550.479 72.8196 551.786 77.2892C545.309 70.8119 531.026 59.1854 525.714 64.4976C520.402 69.8098 522.668 81.8991 524.465 87.2797C516.971 80.4183 500.529 68.1502 494.711 73.9684C488.892 79.7866 493.772 89.2618 496.939 93.2722C490.598 89.4602 476.524 82.5963 470.964 85.6362C465.403 88.6762 466.349 97.2534 467.517 101.162C456.499 96.2147 445.637 97.8329 441.584 99.2604C437.834 107.737 436.891 129.477 463.121 148.623Z" fill="#E0D3C1"/>
<circle cx="178.275" cy="255.275" r="17.5" transform="rotate(-5 178.275 255.275)" stroke="#F3F1FD" stroke-width="10"/>
<circle cx="178.502" cy="255.502" r="40" transform="rotate(-5 178.502 255.502)" stroke="#F3F1FD" stroke-width="10"/>
<circle cx="178.502" cy="255.501" r="62.5" transform="rotate(-5 178.502 255.501)" stroke="#F3F1FD" stroke-width="10"/>
<circle cx="178.502" cy="255.501" r="85" transform="rotate(-5 178.502 255.501)" stroke="#F3F1FD" stroke-width="10"/>
<circle cx="411.275" cy="251.275" r="17.5" transform="rotate(-5 411.275 251.275)" stroke="#F3F1FD" stroke-width="10"/>
<circle cx="411.501" cy="251.502" r="40" transform="rotate(-5 411.501 251.502)" stroke="#F3F1FD" stroke-width="10"/>
<circle cx="411.502" cy="251.501" r="62.5" transform="rotate(-5 411.502 251.501)" stroke="#F3F1FD" stroke-width="10"/>
<circle cx="411.502" cy="251.501" r="85" transform="rotate(-5 411.502 251.501)" stroke="#F3F1FD" stroke-width="10"/>
</svg>
