<svg width="55" height="58" viewBox="0 0 55 58" fill="none" xmlns="http://www.w3.org/2000/svg">
<path d="M14 4.79087C7 -4.18241 1.55556 1.61707 0 4.79087V33.3552C0 37.5869 7 35.471 8.16667 35.471C9.1 35.471 14 14.8871 14 4.79087Z" fill="#F3F1FD"/>
<path d="M50.8666 42.3864C55.6385 32.7725 48.3249 31.6603 44.9266 32.0981L20.2819 46.3267C16.6309 48.4347 21.4264 52.5248 21.9214 53.3822C22.3174 54.0681 42.1557 47.4156 50.8666 42.3864Z" fill="#F3F1FD"/>
<path d="M40.155 14.9277C39.6728 2.34326 31.7092 5.69894 28.5332 8.21783L11.5707 37.5978C9.05772 41.9503 16.1251 43.129 17.0936 43.6881C17.8684 44.1355 34.1595 25.3123 40.155 14.9277Z" fill="#FFDD60"/>
</svg>
